<svg width="120" height="120" viewBox="0 0 120 120" fill="none" xmlns="http://www.w3.org/2000/svg">
<circle cx="60" cy="60" r="60" transform="rotate(-90 60 60)" fill="#000"/>
<path d="M46.7624 98.2391C45.6339 97.1112 45 95.5817 45 93.9869C45 92.3921 45.6339 90.8626 46.7624 89.7348L76.5577 59.9637L46.7624 30.1926C45.6659 29.0583 45.0592 27.539 45.0729 25.9621C45.0866 24.3852 45.7197 22.8767 46.8357 21.7616C47.9517 20.6465 49.4614 20.0139 51.0396 20.0002C52.6179 19.9865 54.1384 20.5927 55.2736 21.6883L89.3246 55.7115C90.453 56.8394 91.087 58.3689 91.087 59.9637C91.087 61.5585 90.453 63.088 89.3246 64.2158L55.2736 98.2391C54.1448 99.3666 52.6141 100 51.018 100C49.4219 100 47.8911 99.3666 46.7624 98.2391Z" fill="white"/>
</svg>
